<svg width="32" height="32" viewBox="0 0 32 32" fill="none" xmlns="http://www.w3.org/2000/svg">
<path d="M12.3335 4.99992H6.22239C5.54738 4.99992 5.00017 5.54713 5.00017 6.22214V14.7777C5.00017 15.4527 5.54738 15.9999 6.22239 15.9999H12.3335C13.0085 15.9999 13.5557 15.4527 13.5557 14.7777V6.22214C13.5557 5.54713 13.0085 4.99992 12.3335 4.99992Z" stroke="#1D5FF6" stroke-width="2.5" stroke-linecap="round" stroke-linejoin="round"/>
<path d="M25.7779 4.99992H19.6668C18.9918 4.99992 18.4446 5.54713 18.4446 6.22214V9.88881C18.4446 10.5638 18.9918 11.111 19.6668 11.111H25.7779C26.453 11.111 27.0002 10.5638 27.0002 9.88881V6.22214C27.0002 5.54713 26.453 4.99992 25.7779 4.99992Z" stroke="#1D5FF6" stroke-width="2.5" stroke-linecap="round" stroke-linejoin="round"/>
<path d="M25.7779 15.9999H19.6668C18.9918 15.9999 18.4446 16.5471 18.4446 17.2221V25.7777C18.4446 26.4527 18.9918 26.9999 19.6668 26.9999H25.7779C26.453 26.9999 27.0002 26.4527 27.0002 25.7777V17.2221C27.0002 16.5471 26.453 15.9999 25.7779 15.9999Z" stroke="#1D5FF6" stroke-width="2.5" stroke-linecap="round" stroke-linejoin="round"/>
<path d="M12.3335 20.8888H6.22239C5.54738 20.8888 5.00017 21.436 5.00017 22.111V25.7777C5.00017 26.4527 5.54738 26.9999 6.22239 26.9999H12.3335C13.0085 26.9999 13.5557 26.4527 13.5557 25.7777V22.111C13.5557 21.436 13.0085 20.8888 12.3335 20.8888Z" stroke="#1D5FF6" stroke-width="2.5" stroke-linecap="round" stroke-linejoin="round"/>
</svg>
