<svg width="32" height="32" viewBox="0 0 32 32" fill="none" xmlns="http://www.w3.org/2000/svg">
<path d="M23.0273 24.6976L20.85 14.7787L25.0837 10.545C26.8981 8.73059 27.5029 6.31135 26.8981 5.10172C25.6885 4.49691 23.2692 5.10172 21.4548 6.91616L17.2211 11.1498L7.30224 8.97251C6.69743 8.85155 6.21358 9.09348 5.97165 9.57732L5.60877 10.1821C5.36684 10.7869 5.48781 11.3918 5.97165 11.7546L12.3827 15.9883L9.96341 19.6172H6.33454L5.12492 20.8268L8.75379 23.2461L11.173 26.8749L12.3827 25.6653V22.0364L16.0115 19.6172L20.2452 26.0282C20.6081 26.512 21.2129 26.633 21.8177 26.3911L22.4225 26.1491C22.9064 25.7863 23.1483 25.3024 23.0273 24.6976Z" stroke="#1D5FF6" stroke-width="2.5" stroke-linecap="round" stroke-linejoin="round"/>
</svg>
