<svg width="32" height="32" viewBox="0 0 32 32" fill="none" xmlns="http://www.w3.org/2000/svg">
<path d="M6.53713 18.3996C6.31011 18.4004 6.08752 18.3368 5.89523 18.2161C5.70295 18.0954 5.54885 17.9226 5.45086 17.7178C5.35286 17.513 5.31498 17.2846 5.34162 17.0592C5.36826 16.8337 5.45833 16.6204 5.60136 16.4441L17.4785 4.20708C17.5676 4.10424 17.689 4.03474 17.8228 4.01C17.9566 3.98526 18.0948 4.00674 18.2148 4.07091C18.3348 4.13509 18.4294 4.23814 18.483 4.36317C18.5367 4.48819 18.5463 4.62775 18.5102 4.75894L16.2068 11.9812C16.1389 12.163 16.1161 12.3585 16.1403 12.5511C16.1646 12.7436 16.2352 12.9274 16.3461 13.0866C16.457 13.2459 16.6048 13.3759 16.777 13.4654C16.9491 13.555 17.1405 13.6014 17.3345 13.6008H25.7325C25.9595 13.6 26.1821 13.6637 26.3744 13.7844C26.5667 13.9051 26.7208 14.0779 26.8188 14.2826C26.9168 14.4874 26.9546 14.7158 26.928 14.9413C26.9014 15.1667 26.8113 15.38 26.6683 15.5563L14.7911 27.7934C14.702 27.8962 14.5806 27.9657 14.4468 27.9904C14.313 28.0152 14.1748 27.9937 14.0548 27.9295C13.9349 27.8653 13.8403 27.7623 13.7866 27.6373C13.7329 27.5122 13.7233 27.3727 13.7594 27.2415L16.0628 20.0192C16.1307 19.8375 16.1536 19.6419 16.1293 19.4494C16.105 19.2568 16.0344 19.0731 15.9236 18.9138C15.8127 18.7545 15.6648 18.6246 15.4926 18.535C15.3205 18.4455 15.1292 18.399 14.9351 18.3996H6.53713Z" stroke="#1D5FF6" stroke-width="2.5" stroke-linecap="round" stroke-linejoin="round"/>
</svg>
